<?xml version="1.0" standalone="no"?>
<!DOCTYPE svg PUBLIC "-//W3C//DTD SVG 20010904//EN"
 "http://www.w3.org/TR/2001/REC-SVG-20010904/DTD/svg10.dtd">
<svg version="1.0" xmlns="http://www.w3.org/2000/svg"
 width="500.000000pt" height="500.000000pt" viewBox="0 0 500.000000 500.000000"
 preserveAspectRatio="xMidYMid meet">

<g transform="translate(0.000000,500.000000) scale(0.100000,-0.100000)"
fill="#000000" stroke="none">
<path d="M3020 3818 c-1 -55 -31 -122 -74 -162 l-34 -31 47 -1 c63 -1 135 -37
166 -82 l25 -37 0 55 c0 68 26 127 73 166 l35 29 -51 1 c-61 1 -123 29 -161
74 l-26 32 0 -44z"/>
<path d="M2365 3601 c-180 -29 -371 -125 -495 -250 -111 -112 -206 -288 -233
-434 -10 -56 -13 -59 -51 -75 -116 -46 -242 -125 -282 -177 -43 -57 -15 -111
71 -135 51 -14 161 -4 115 10 -14 5 -41 11 -60 14 -51 9 -100 42 -100 67 0 32
63 84 171 139 54 28 102 50 108 50 7 0 11 -29 12 -77 0 -114 10 -157 34 -161
17 -2 23 6 33 43 14 53 25 57 42 15 7 -17 17 -33 22 -36 4 -3 -1 15 -14 40
-25 52 -21 66 38 134 l31 37 42 -83 c36 -71 40 -86 29 -100 -11 -15 -11 -15 3
-5 11 9 18 10 27 1 8 -8 9 -6 6 10 -5 16 7 31 55 68 33 27 58 50 55 53 -2 2
-31 -19 -63 -47 -33 -29 -61 -52 -63 -52 -2 0 -22 36 -43 80 l-39 80 49 51
c80 82 73 85 149 -67 59 -117 66 -137 55 -151 -13 -15 -12 -15 7 -5 12 6 24 9
28 7 3 -3 4 -2 1 2 -5 6 132 102 147 103 4 0 17 -19 29 -41 17 -34 18 -43 8
-50 -10 -6 -7 -8 9 -6 12 0 22 4 22 7 0 4 22 17 50 30 27 13 48 25 46 27 -1 2
-23 -6 -47 -17 -24 -11 -49 -20 -55 -20 -14 0 -47 71 -37 81 9 9 148 69 160
69 9 0 33 -57 33 -78 0 -6 -9 -14 -21 -17 -11 -4 -18 -9 -16 -12 3 -2 14 0 25
6 18 10 22 7 32 -24 6 -19 15 -37 20 -40 5 -3 2 11 -6 31 -8 20 -12 40 -7 44
21 20 326 90 338 78 2 -2 8 -44 14 -93 l10 -90 -4 92 -5 92 28 4 27 4 -26 2
c-21 1 -28 7 -33 32 -13 68 -13 69 63 69 50 0 74 -4 85 -16 10 -10 16 -11 16
-4 0 9 13 10 47 5 83 -12 93 -19 95 -67 l1 -43 6 43 6 44 56 -38 c69 -45 102
-97 92 -145 l-6 -32 -24 29 c-14 18 -24 44 -25 69 -1 38 -1 38 -5 7 -3 -18 -7
-32 -11 -30 -62 33 -125 58 -157 62 l-40 6 45 -13 c54 -15 57 -27 35 -122 -8
-37 -13 -70 -11 -72 5 -5 36 127 36 151 0 21 18 20 58 -4 36 -22 38 -35 16
-109 -8 -29 -13 -55 -11 -57 3 -3 13 25 23 62 l18 67 24 -28 c23 -28 25 -42 8
-100 -4 -11 0 -6 8 10 l15 30 1 -27 c0 -42 17 -42 24 0 11 66 6 245 -8 314 -8
36 -28 101 -45 143 -17 42 -31 78 -31 81 0 8 167 4 230 -7 78 -12 124 -37 128
-68 5 -31 -55 -87 -146 -134 -78 -41 -92 -54 -68 -63 39 -15 233 111 256 165
15 38 4 71 -32 95 -49 32 -183 54 -330 55 l-66 1 -45 63 c-111 155 -293 279
-482 327 -84 21 -257 32 -330 21z m142 -26 c7 -2 15 0 17 4 9 14 118 0 160
-20 21 -10 42 -16 46 -14 4 3 25 -2 46 -9 34 -13 35 -15 13 -15 -14 -1 -29 2
-33 6 -4 4 -44 6 -90 4 -52 -2 -86 1 -90 8 -4 6 -17 16 -29 21 -22 10 -22 10
1 -6 30 -23 28 -32 -10 -37 -19 -3 -15 -3 9 -2 30 2 47 -3 58 -15 13 -14 13
-19 3 -23 -7 -3 -4 -6 7 -6 24 -1 65 -61 43 -61 -7 -1 -49 -7 -93 -15 -44 -8
-81 -15 -82 -15 -1 0 -9 14 -18 30 -9 17 -12 30 -8 30 5 0 2 4 -6 9 -8 5 -21
5 -30 1 -18 -10 -154 -50 -169 -50 -5 0 -12 8 -15 19 -3 15 4 21 35 30 22 7
38 14 35 17 -2 2 -16 0 -31 -6 -43 -16 -52 -12 -63 25 l-11 35 70 21 69 21 29
-27 c35 -33 32 -40 -16 -50 -20 -3 -34 -9 -31 -11 3 -3 22 -1 43 5 28 8 42 7
53 -2 12 -9 13 -9 8 0 -5 8 2 15 20 19 47 10 50 14 7 9 -35 -4 -44 -1 -69 25
-16 17 -25 30 -19 31 5 0 0 4 -11 9 -14 6 -7 8 25 5 35 -4 39 -3 20 4 -18 7
-8 8 35 4 33 -2 65 -6 72 -8z m-252 -29 c-77 -24 -132 -51 -84 -41 22 6 27 2
36 -28 l10 -35 -75 -33 c-42 -19 -79 -35 -83 -37 -4 -2 -9 12 -12 30 l-4 33
-1 -36 c-2 -34 -7 -40 -68 -78 -37 -23 -68 -40 -70 -38 -2 2 1 20 7 40 12 44
35 67 97 99 26 12 49 26 52 29 3 3 23 16 45 27 22 12 36 21 32 22 -4 0 -21 -7
-37 -15 -17 -9 -30 -12 -30 -7 0 17 188 91 230 91 14 0 -7 -10 -45 -23z m516
-46 l24 -19 -80 -1 c-76 0 -105 9 -105 32 0 4 31 8 69 8 54 0 74 -4 92 -20z
m61 11 c-10 -6 -4 -10 21 -15 37 -7 72 -35 46 -37 -8 0 0 -5 16 -11 17 -6 38
-17 48 -26 9 -8 17 -12 17 -8 0 11 53 -20 74 -43 11 -12 16 -21 12 -21 -14 0
-51 23 -63 39 -7 10 -12 11 -13 4 0 -8 -9 -9 -32 -2 -18 5 -42 9 -53 8 -11 0
8 -7 41 -15 53 -13 65 -20 86 -52 35 -52 60 -103 55 -108 -3 -3 -35 1 -72 9
l-67 13 -37 79 c-19 43 -46 90 -58 103 -13 14 -23 31 -23 38 0 8 -6 14 -14 14
-7 0 -19 6 -25 14 -10 12 -8 15 11 19 39 7 44 7 30 -2z m-797 -57 c-28 -21
-55 -36 -55 -29 0 6 62 45 70 45 3 -1 -4 -8 -15 -16z m795 -14 l21 -30 -81 0
c-73 0 -84 3 -101 23 -10 12 -18 25 -19 30 0 4 36 7 79 7 77 0 80 -1 101 -30z
m-375 -30 c12 -24 13 -31 3 -34 -7 -3 -45 -14 -85 -25 -40 -12 -78 -24 -85
-26 -8 -3 -18 7 -26 27 -6 17 -11 33 -9 34 3 3 169 52 179 53 4 1 15 -13 23
-29z m-225 5 c0 -8 -1 -16 -2 -17 -2 -2 5 -14 15 -28 23 -33 22 -57 -4 -65
-11 -4 -18 -9 -16 -12 3 -2 14 0 25 6 18 9 22 3 49 -68 l30 -79 -76 -32 c-42
-17 -86 -38 -98 -46 -21 -13 -23 -12 -45 57 -12 39 -24 67 -25 62 -2 -5 6 -35
17 -67 11 -32 18 -62 15 -66 -8 -12 -125 -80 -149 -86 -21 -5 -25 0 -39 53
-10 33 -17 66 -17 75 0 17 133 108 157 108 7 0 13 4 13 8 0 5 10 14 23 21 22
11 22 11 -3 5 -13 -4 -36 -15 -50 -24 -39 -28 -140 -90 -145 -90 -13 0 -3 66
12 82 16 18 16 18 0 12 -13 -5 -17 -1 -17 18 0 27 80 81 221 147 92 44 109 48
109 26z m485 -87 c19 -39 33 -74 30 -76 -2 -3 -46 -11 -97 -18 -87 -13 -94
-13 -107 3 -12 17 -13 17 -7 -2 5 -18 -5 -23 -95 -49 -55 -16 -101 -27 -104
-25 -12 13 -54 144 -48 150 6 6 175 59 188 59 1 0 8 -14 15 -30 7 -17 15 -29
17 -26 3 2 -1 14 -7 26 -6 12 -9 25 -5 28 6 7 126 29 163 31 19 1 29 -12 57
-71z m175 17 c16 -27 31 -60 35 -72 6 -23 5 -23 -80 -23 l-86 0 -11 31 c-6 17
-21 51 -34 75 l-24 45 86 -3 87 -3 27 -50z m-992 -35 c-9 -37 -21 -53 -64 -87
-34 -27 -54 -38 -58 -30 -2 7 -5 3 -5 -9 -1 -11 -10 -29 -21 -39 -23 -21 -28
-44 -5 -25 29 24 16 -21 -21 -71 -20 -27 -37 -49 -39 -49 -7 0 13 58 29 82 9
14 13 27 10 31 -8 8 46 98 56 92 4 -3 11 7 14 21 6 23 104 139 112 132 1 -2
-2 -23 -8 -48z m1260 -55 c17 -26 32 -51 32 -56 0 -12 -37 -11 -60 1 -15 8
-90 129 -90 146 0 19 90 -52 118 -91z m-1268 -27 c0 -15 -20 -40 -58 -72 -55
-47 -57 -48 -60 -25 -3 18 8 34 50 71 29 26 56 48 61 48 4 0 7 -10 7 -22z
m1050 -5 c4 -4 11 -18 14 -29 6 -19 2 -22 -41 -28 -26 -4 -65 -9 -85 -12 -35
-5 -37 -4 -47 33 -6 21 -11 42 -11 47 0 11 159 1 170 -11z m-172 -30 c8 -25 8
-39 1 -44 -6 -3 -49 -12 -96 -19 -72 -10 -87 -10 -94 1 -7 12 -9 11 -9 -1 0
-11 -26 -21 -101 -36 l-101 -20 -13 30 c-16 38 -14 40 104 72 59 17 87 20 90
13 2 -7 6 -7 12 2 9 15 99 36 160 38 33 1 37 -2 47 -36z m266 22 c72 -17 95
-35 46 -35 -19 0 -51 -3 -71 -6 -34 -6 -37 -4 -47 25 -13 36 -13 36 72 16z
m-1201 -150 l-58 -53 -6 27 c-6 24 -7 24 -8 -7 -1 -22 -13 -48 -36 -76 -19
-24 -35 -47 -35 -51 0 -5 14 10 31 34 33 44 49 42 49 -6 0 -16 -9 -24 -35 -33
-44 -15 -55 -7 -55 36 0 46 38 101 131 189 l74 70 3 -39 c3 -35 -1 -42 -55
-91z m1381 63 c14 -23 36 -112 36 -148 0 -18 -3 -17 -50 7 -43 22 -50 30 -51
57 -1 17 -5 42 -9 56 -6 16 -7 6 -3 -29 l6 -54 -39 6 -39 6 43 -15 c41 -15 42
-16 42 -63 l0 -48 -52 13 c-29 8 -60 14 -70 14 -14 0 -18 9 -20 38 l-1 37 -4
-35 -4 -35 -82 4 c-45 1 -83 4 -83 5 -1 0 -5 22 -8 49 l-7 47 85 0 c75 0 86
-2 86 -17 0 -12 3 -14 8 -6 4 6 21 13 37 16 l30 4 -32 2 c-18 0 -33 4 -33 9 0
4 -42 6 -94 4 l-94 -3 -4 31 c-3 17 -2 32 1 34 3 2 41 7 83 11 l77 7 10 -33
10 -34 -2 35 -2 35 73 0 c39 0 72 3 72 8 0 4 16 7 35 7 25 0 38 -6 49 -22z
m-870 -24 c4 -15 5 -29 2 -31 -4 -5 -116 -33 -187 -47 -13 -3 -39 -10 -58 -15
-19 -6 -37 -9 -39 -7 -7 8 58 37 68 31 6 -3 10 -1 10 5 0 12 155 89 181 90 10
0 20 -11 23 -26z m454 -26 c4 -30 10 -28 -112 -48 -37 -6 -70 -9 -73 -7 -2 3
-5 17 -6 33 -2 28 0 29 68 40 102 17 119 15 123 -18z m-883 -43 c9 -36 16 -67
14 -69 -8 -7 -140 -48 -144 -45 -2 2 -6 20 -10 40 -6 34 -4 38 51 87 32 29 61
52 65 52 3 0 14 -29 24 -65z m1374 -30 c29 -95 35 -129 21 -120 -9 6 -9 3 -1
-13 6 -11 11 -38 11 -59 l0 -38 -25 30 c-17 21 -24 42 -25 74 0 40 1 42 18 30
14 -12 14 -11 -2 8 -14 17 -46 147 -45 183 0 19 33 -45 48 -95z m-695 53 c9
-34 7 -46 -6 -51 -7 -2 -5 -3 5 -2 9 2 17 -2 17 -8 0 -9 3 -9 8 0 8 12 71 28
148 36 40 5 42 3 48 -25 13 -64 8 -76 -26 -81 l-33 -4 36 -1 c35 -2 37 -4 43
-43 4 -23 5 -43 4 -44 -2 -2 -40 -10 -85 -17 -57 -10 -83 -11 -83 -4 0 8 -3 7
-8 0 -4 -6 -39 -21 -79 -33 -40 -12 -78 -24 -85 -26 -9 -4 -19 11 -30 40 l-17
44 80 26 c91 28 105 30 112 13 4 -8 6 -7 6 4 1 9 9 19 19 21 13 4 12 5 -5 6
-12 0 -24 9 -26 19 -4 14 -5 13 -6 -4 -1 -17 -16 -25 -83 -45 -46 -13 -87 -24
-93 -24 -5 0 -17 21 -27 47 l-17 47 54 17 c30 10 53 20 50 22 -2 2 -25 -3 -51
-12 -26 -9 -49 -16 -51 -16 -6 0 -35 72 -30 76 4 4 171 41 193 43 7 1 14 -9
18 -21z m-196 -103 c-6 -5 -174 -76 -183 -78 -5 -1 -12 -4 -15 -7 -11 -12
-161 -102 -164 -99 -8 8 -64 125 -70 145 -5 18 -2 22 21 27 16 4 58 15 96 26
l67 20 21 -50 c12 -27 23 -48 26 -46 2 2 -5 24 -16 48 -11 24 -18 46 -15 48 2
3 48 15 102 27 l97 22 18 -41 c9 -22 16 -41 15 -42z m819 10 c41 -24 43 -28
43 -70 0 -25 -2 -45 -4 -45 -2 0 -24 12 -50 26 -44 25 -46 28 -46 70 0 24 3
44 7 44 3 0 26 -11 50 -25z m-1556 -88 c-16 -16 -19 -5 -7 33 l10 35 4 -29 c2
-16 -1 -33 -7 -39z m758 26 c7 -21 14 -43 17 -48 2 -6 -33 -26 -78 -45 -46
-19 -86 -36 -90 -38 -7 -3 -48 70 -48 86 0 9 155 81 176 82 6 0 16 -17 23 -37z
m-564 -33 c-32 -33 -41 -37 -48 -25 -13 24 -4 37 34 51 54 20 56 17 14 -26z
m-59 -26 c5 -19 0 -32 -18 -52 -14 -15 -33 -39 -43 -54 -9 -15 -20 -26 -24
-23 -11 6 -34 115 -26 123 9 10 67 30 87 31 11 1 20 -9 24 -25z m450 -83 c-9
-15 -146 -92 -154 -87 -4 2 -16 21 -26 41 -24 43 -19 49 76 105 l63 37 23 -44
c12 -24 20 -47 18 -52z m-562 -3 c16 -70 16 -75 -2 -123 l-20 -50 -16 55 c-9
29 -16 64 -16 77 0 34 21 113 30 113 4 0 15 -33 24 -72z m1642 -116 c-12 -11
-16 6 -9 39 l8 34 3 -33 c2 -19 1 -36 -2 -40z"/>
<path d="M2538 3463 c12 -2 30 -2 40 0 9 3 -1 5 -23 4 -22 0 -30 -2 -17 -4z"/>
<path d="M2478 3453 c6 -2 18 -2 25 0 6 3 1 5 -13 5 -14 0 -19 -2 -12 -5z"/>
<path d="M2848 3463 c6 -2 18 -2 25 0 6 3 1 5 -13 5 -14 0 -19 -2 -12 -5z"/>
<path d="M2190 3370 c-8 -5 -10 -10 -5 -10 6 0 17 5 25 10 8 5 11 10 5 10 -5
0 -17 -5 -25 -10z"/>
<path d="M2110 3335 c-41 -21 -46 -21 -52 -7 -5 14 -7 13 -7 -5 -1 -12 -9 -24
-18 -27 -10 -4 -29 -15 -43 -26 -14 -11 20 3 75 31 107 56 113 59 99 59 -5 -1
-29 -12 -54 -25z"/>
<path d="M2170 3275 c-14 -8 -20 -14 -15 -14 6 0 21 6 35 14 14 8 21 14 15 14
-5 0 -21 -6 -35 -14z"/>
<path d="M2061 3264 c0 -11 3 -14 6 -6 3 7 2 16 -1 19 -3 4 -6 -2 -5 -13z"/>
<path d="M2510 3295 c0 -5 5 -17 10 -25 5 -8 10 -10 10 -5 0 6 -5 17 -10 25
-5 8 -10 11 -10 5z"/>
<path d="M2538 2993 c7 -3 16 -2 19 1 4 3 -2 6 -13 5 -11 0 -14 -3 -6 -6z"/>
<path d="M2621 2964 c0 -11 3 -14 6 -6 3 7 2 16 -1 19 -3 4 -6 -2 -5 -13z"/>
<path d="M2703 2913 c9 -2 23 -2 30 0 6 3 -1 5 -18 5 -16 0 -22 -2 -12 -5z"/>
<path d="M2651 2844 c0 -11 3 -14 6 -6 3 7 2 16 -1 19 -3 4 -6 -2 -5 -13z"/>
<path d="M3340 3572 c0 -11 -9 -31 -20 -44 -21 -27 -18 -38 12 -38 10 0 27 -9
38 -20 l20 -20 0 24 c0 13 9 35 21 50 20 25 20 26 1 26 -11 0 -31 9 -46 21
-25 20 -26 20 -26 1z"/>
<path d="M3011 2858 c-1 -19 -7 -28 -23 -31 -23 -4 -23 -4 -1 -6 16 -1 23 -8
25 -28 l3 -28 5 30 c3 17 3 44 -1 60 -7 30 -7 30 -8 3z"/>
<path d="M2672 2760 c0 -14 2 -19 5 -12 2 6 2 18 0 25 -3 6 -5 1 -5 -13z"/>
<path d="M3003 2710 c0 -30 2 -43 4 -27 2 15 2 39 0 55 -2 15 -4 2 -4 -28z"/>
<path d="M2682 2710 c0 -14 2 -19 5 -12 2 6 2 18 0 25 -3 6 -5 1 -5 -13z"/>
<path d="M2691 2664 c0 -11 3 -14 6 -6 3 7 2 16 -1 19 -3 4 -6 -2 -5 -13z"/>
<path d="M2605 2538 c-2 -7 -5 -34 -7 -60 -3 -44 -1 -48 19 -48 12 0 24 -3 26
-7 2 -5 -2 -62 -9 -128 -7 -66 -13 -130 -13 -142 -1 -18 -7 -23 -30 -23 -27 0
-29 -3 -35 -56 -4 -31 -5 -58 -3 -60 5 -5 208 -27 211 -22 2 1 6 29 9 61 5 55
5 57 -19 57 -23 0 -24 3 -23 58 3 133 9 130 74 -31 42 -105 66 -151 80 -157
11 -4 59 -11 108 -15 71 -5 87 -4 87 7 0 8 9 101 20 208 11 107 20 196 20 198
0 2 10 0 21 -3 28 -9 39 9 39 67 0 52 6 50 -141 64 l-66 6 -7 -32 c-3 -18 -6
-45 -6 -61 0 -24 4 -29 26 -29 l26 0 -7 -67 c-13 -140 -11 -141 -84 38 l-67
164 -70 7 c-38 3 -93 9 -122 12 -38 5 -54 3 -57 -6z"/>
<path d="M2105 2523 c-88 -8 -161 -16 -161 -17 -1 0 1 -27 3 -58 l5 -58 34 0
c19 0 34 -4 34 -8 0 -15 -60 -285 -66 -293 -3 -5 -17 -9 -31 -9 -19 0 -24 -4
-19 -16 3 -9 6 -36 6 -61 l0 -45 48 6 c26 3 80 8 120 12 71 6 72 7 72 34 0 15
-3 42 -6 59 -6 26 -11 31 -35 31 -29 0 -35 12 -23 44 5 12 21 16 65 16 53 0
61 -3 68 -22 7 -18 5 -24 -10 -26 -16 -3 -19 -13 -19 -63 l0 -59 38 0 c42 0
266 20 270 24 1 2 0 29 -4 60 -6 52 -8 56 -34 56 -25 0 -29 8 -75 128 -96 256
-107 282 -113 281 -4 -1 -79 -8 -167 -16z m75 -270 c0 -9 -14 -13 -41 -13 -38
0 -41 2 -36 23 3 12 11 49 18 82 l12 60 23 -69 c13 -39 24 -76 24 -83z"/>
<path d="M1590 2435 c-148 -36 -140 -28 -119 -108 9 -34 13 -38 37 -35 26 3
26 1 59 -132 38 -161 38 -160 14 -160 -11 0 -22 -3 -25 -8 -7 -12 17 -104 29
-108 12 -5 252 50 262 59 3 3 0 29 -7 56 -11 46 -15 51 -40 51 -28 0 -29 1
-63 143 l-34 142 24 8 c26 10 28 31 10 88 l-12 36 -135 -32z"/>
<path d="M3631 2327 c-85 -33 -161 -139 -176 -247 -22 -160 103 -288 314 -321
40 -6 82 -7 101 -2 30 8 35 15 71 118 30 83 36 111 27 117 -15 9 -191 69 -193
65 -1 -1 -9 -22 -18 -46 l-16 -43 29 -11 c31 -12 36 -22 21 -46 -14 -21 -79
-4 -113 29 -23 24 -28 37 -28 79 0 65 33 137 74 163 64 40 150 1 162 -72 6
-34 10 -38 54 -52 l48 -16 32 90 c18 49 28 93 24 98 -5 4 -30 14 -56 23 -44
14 -49 14 -57 0 -7 -14 -10 -13 -20 5 -6 12 -32 33 -57 48 -54 32 -166 42
-223 21z"/>
<path d="M970 2237 c-102 -41 -185 -78 -185 -83 0 -5 9 -30 19 -56 17 -43 21
-47 46 -42 26 6 28 3 79 -123 55 -138 59 -153 37 -153 -8 0 -17 -4 -21 -9 -5
-9 21 -88 35 -104 6 -7 234 76 253 93 4 4 -1 29 -12 56 -17 44 -22 49 -48 46
-25 -2 -30 2 -42 35 -8 21 -16 43 -18 49 -6 16 51 37 77 29 12 -4 33 -32 53
-72 18 -36 44 -75 58 -85 25 -19 26 -19 112 12 50 18 87 38 87 45 0 7 -9 34
-20 59 l-19 46 -35 -14 -34 -14 -18 40 c-21 47 -48 68 -88 68 l-30 0 28 28
c37 39 43 88 18 138 -54 105 -93 107 -332 11z m184 -93 c34 -34 13 -80 -47
-103 -27 -10 -29 -9 -47 35 -25 58 -25 58 8 71 40 16 69 15 86 -3z"/>
<path d="M4280 2070 c-85 -16 -157 -80 -203 -179 -74 -158 -15 -298 159 -376
28 -13 71 -26 96 -30 l46 -7 36 64 c20 36 36 68 36 71 0 4 -18 7 -40 7 -81 0
-155 48 -166 107 -13 69 53 172 122 189 58 15 105 -40 84 -99 -5 -17 -10 -33
-10 -37 0 -11 79 -52 89 -46 5 4 32 47 60 96 l50 90 -48 25 c-44 22 -49 22
-64 8 -15 -15 -17 -14 -27 13 -16 42 -47 72 -94 88 -58 21 -86 24 -126 16z"/>
<path d="M505 1992 c-54 -19 -324 -181 -325 -196 0 -20 56 -96 68 -91 6 3 18
8 26 11 9 3 38 -34 90 -116 42 -67 76 -125 76 -129 0 -4 -12 -13 -26 -20 l-25
-11 22 -38 c43 -72 34 -73 181 19 159 99 186 120 215 168 54 86 0 197 -101
208 -40 5 -44 8 -36 24 16 29 11 92 -10 126 -33 55 -83 69 -155 45z m30 -166
c19 -29 9 -58 -27 -77 -18 -10 -24 -8 -39 12 -29 38 -33 59 -12 74 28 22 61
18 78 -9z m110 -166 c17 -34 9 -62 -25 -80 -27 -14 -26 -15 -59 34 l-31 44 23
15 c37 27 74 21 92 -13z"/>
<path d="M2384 1802 c-10 -7 -44 -115 -44 -140 0 -20 18 -14 25 8 4 13 15 20
30 20 15 0 26 -7 30 -20 3 -11 13 -20 20 -20 11 0 8 16 -11 72 -27 79 -34 91
-50 80z m25 -84 c1 -5 -6 -8 -14 -8 -15 0 -21 31 -8 44 7 6 20 -17 22 -36z"/>
<path d="M2540 1731 c0 -90 17 -112 22 -28 l3 52 20 -52 c13 -37 25 -53 37
-53 16 0 18 10 18 76 0 56 -3 75 -12 72 -7 -3 -15 -22 -18 -44 l-5 -39 -16 45
c-9 25 -23 46 -32 48 -15 3 -17 -7 -17 -77z"/>
<path d="M2215 1785 c-16 -49 -18 -51 -28 -22 -18 45 -37 34 -37 -22 0 -60 10
-111 21 -111 5 0 9 19 10 43 0 23 3 36 6 30 7 -20 23 -15 33 10 7 18 9 13 9
-25 1 -34 5 -48 15 -48 11 0 13 14 9 68 -2 37 -6 73 -8 80 -6 17 -25 15 -30
-3z"/>
<path d="M2736 1777 c-3 -12 -7 -48 -9 -79 l-4 -58 43 0 c51 0 74 25 74 81 0
42 -20 63 -67 72 -28 6 -33 3 -37 -16z m74 -27 c18 -33 -5 -90 -36 -90 -26 0
-28 9 -18 73 7 42 36 51 54 17z"/>
<path d="M1976 1719 c-4 -29 -10 -65 -13 -80 -6 -33 16 -42 24 -10 7 28 49 33
67 7 29 -43 25 -6 -6 62 -41 89 -62 95 -72 21z m48 -41 c-10 -16 -36 -8 -30 8
3 9 6 23 6 32 1 12 5 10 14 -8 8 -14 12 -28 10 -32z"/>
<path d="M2925 1740 c-29 -56 -15 -111 32 -125 34 -10 73 34 73 80 0 55 -15
75 -55 75 -28 0 -37 -6 -50 -30z m75 -5 c8 -10 9 -26 3 -52 -7 -31 -13 -38
-33 -38 -22 0 -25 5 -28 38 -5 57 29 87 58 52z"/>
<path d="M1788 1733 c-32 -5 -34 -23 -15 -106 13 -52 34 -61 29 -12 l-4 30 29
-27 c16 -16 38 -28 48 -28 16 0 15 4 -9 28 -24 26 -25 30 -11 42 22 18 19 46
-7 64 -12 9 -25 15 -28 15 -3 -1 -17 -4 -32 -6z m52 -42 c0 -17 -18 -31 -41
-31 -5 0 -9 11 -9 25 0 20 5 25 25 25 18 0 25 -5 25 -19z"/>
<path d="M3310 1667 c-6 -23 -15 -57 -20 -75 -8 -30 -6 -34 16 -43 57 -21 90
-5 81 40 -4 17 -2 31 3 31 5 0 12 10 15 21 8 25 -7 42 -52 57 -32 11 -33 11
-43 -31z m70 -18 c0 -12 -7 -19 -19 -19 -24 0 -33 13 -25 33 8 21 44 9 44 -14z
m-15 -64 c0 -11 -7 -21 -15 -22 -24 -4 -41 12 -34 31 9 24 49 17 49 -9z"/>
<path d="M1621 1690 c-43 -10 -53 -26 -47 -73 5 -48 31 -77 67 -77 34 0 64 38
54 70 -7 21 -14 24 -39 14 -21 -8 -21 -24 0 -24 22 0 13 -34 -10 -38 -26 -5
-46 24 -46 64 0 40 14 50 46 33 13 -7 26 -10 29 -8 6 7 -6 49 -14 48 -3 -1
-21 -5 -40 -9z"/>
<path d="M3499 1623 c-20 -50 -23 -108 -6 -122 40 -32 86 11 103 97 11 55 -14
36 -33 -24 -18 -58 -36 -75 -56 -55 -8 8 -6 25 6 64 20 63 20 67 7 67 -6 0
-15 -12 -21 -27z"/>
<path d="M1407 1622 c-39 -42 -5 -142 48 -142 51 0 71 60 40 119 -22 44 -61
54 -88 23z m78 -63 c13 -57 -34 -80 -60 -29 -20 38 -19 67 2 79 23 13 50 -10
58 -50z"/>
<path d="M3681 1554 c-12 -15 -21 -32 -21 -40 0 -7 -3 -19 -6 -28 -6 -17 37
-66 59 -66 18 0 57 37 57 55 0 15 -37 31 -48 20 -4 -3 0 -10 8 -15 11 -7 11
-11 1 -24 -17 -20 -51 -4 -51 24 0 28 20 68 38 75 18 7 42 -12 42 -32 0 -21
25 -10 28 13 2 12 -7 23 -25 32 -40 18 -59 15 -82 -14z"/>
<path d="M1218 1559 l-27 -10 25 -67 c14 -37 29 -71 34 -75 14 -15 21 12 10
34 -17 31 -5 34 30 9 21 -15 35 -19 41 -13 7 7 1 16 -15 26 -22 15 -23 19 -13
46 19 52 -18 74 -85 50z m59 -25 c7 -18 -23 -47 -38 -38 -13 8 -11 42 4 47 21
9 27 7 34 -9z"/>
<path d="M3876 1494 c-22 -21 -20 -30 10 -69 14 -19 23 -39 19 -45 -11 -18
-35 -11 -47 15 -6 14 -15 25 -19 25 -8 0 -24 -40 -17 -43 1 -1 13 -8 25 -14
64 -36 116 24 63 72 -11 10 -20 24 -20 32 0 7 9 13 20 13 13 0 20 -7 20 -20 0
-20 29 -29 32 -10 3 25 2 30 -5 30 -4 -1 -15 6 -23 15 -20 19 -38 19 -58 -1z"/>
<path d="M1043 1484 l-32 -14 31 -70 c30 -68 48 -88 48 -52 0 9 -4 24 -9 32
-7 10 -2 19 20 32 32 20 37 48 13 72 -18 19 -29 19 -71 0z m57 -33 c0 -27 -31
-36 -47 -15 -10 14 -10 19 0 26 22 14 47 9 47 -11z"/>
<path d="M2170 1455 c-291 -30 -493 -87 -566 -160 -33 -33 -32 -87 1 -121 41
-41 149 -84 289 -114 205 -45 307 -54 606 -54 299 0 401 9 606 54 140 30 248
73 289 114 33 34 34 88 1 121 -132 132 -731 210 -1226 160z m130 -138 c0 -7
-9 -18 -20 -25 -11 -7 -20 -18 -20 -26 0 -7 9 -21 20 -31 32 -29 25 -45 -21
-45 -33 0 -40 3 -37 18 1 9 -2 17 -7 17 -5 0 -8 -8 -7 -17 3 -14 -4 -18 -32
-18 -43 0 -45 13 -8 45 l27 23 -22 24 c-38 41 -30 48 52 48 54 0 75 -4 75 -13z
m131 -14 l2 -28 4 28 c4 22 9 27 34 27 19 0 29 -5 29 -15 0 -8 -4 -15 -10 -15
-5 0 -15 -10 -21 -22 -10 -19 -8 -25 15 -44 42 -37 33 -44 -59 -44 -92 0 -103
8 -60 42 30 24 32 44 5 60 -33 21 -24 38 20 38 37 0 40 -2 41 -27z m184 -43
l0 -70 -32 0 c-32 0 -46 21 -23 35 6 3 10 19 10 35 0 16 -4 32 -10 35 -23 14
-9 35 23 35 l32 0 0 -70z m120 0 l0 -70 -30 0 -30 0 0 70 0 70 30 0 30 0 0
-70z m125 55 c0 -8 -4 -15 -10 -15 -5 0 -10 -18 -10 -40 0 -22 5 -40 10 -40 6
0 10 -7 10 -15 0 -11 -11 -15 -40 -15 -29 0 -40 4 -40 15 0 8 5 15 10 15 6 0
10 18 10 40 0 22 -4 40 -10 40 -5 0 -10 7 -10 15 0 11 11 15 40 15 29 0 40 -4
40 -15z"/>
<path d="M2405 1230 c-3 -5 1 -10 10 -10 9 0 13 5 10 10 -3 6 -8 10 -10 10 -2
0 -7 -4 -10 -10z"/>
<path d="M4046 1421 c-4 -5 -1 -13 6 -17 7 -5 3 -11 -13 -17 l-24 -10 24 -5
c41 -7 68 48 29 56 -9 2 -19 -1 -22 -7z"/>
<path d="M906 1404 c-3 -8 0 -26 7 -40 11 -22 15 -23 31 -11 22 16 13 39 -10
30 -13 -5 -15 -1 -9 15 7 25 -10 30 -19 6z"/>
<path d="M4106 1391 c-4 -5 -2 -12 4 -16 6 -4 8 -11 4 -16 -3 -5 -9 -7 -14 -4
-5 3 -11 1 -14 -4 -3 -5 1 -12 9 -15 18 -7 58 30 52 47 -5 15 -33 21 -41 8z"/>
<path d="M846 1375 c-6 -16 12 -65 24 -65 9 0 30 22 30 32 0 4 -9 8 -19 8 -14
0 -18 5 -14 20 6 23 -12 27 -21 5z"/>
<path d="M1335 1286 l-40 -41 41 -41 41 -42 16 27 c9 15 27 33 41 41 l26 13
-26 18 c-14 9 -34 28 -43 41 l-16 24 -40 -40z"/>
<path d="M3574 1284 l-41 -42 23 -11 c13 -6 32 -24 42 -41 l19 -30 14 27 c8
14 25 33 39 42 l25 16 -40 40 -40 41 -41 -42z"/>
</g>
</svg>
